<?xml version="1.0" encoding="utf-8"?>
<!-- Generator: Adobe Illustrator 26.4.1, SVG Export Plug-In . SVG Version: 6.00 Build 0)  -->
<svg version="1.1" id="图层_1" xmlns="http://www.w3.org/2000/svg" xmlns:xlink="http://www.w3.org/1999/xlink" x="0px" y="0px"
	 viewBox="0 0 32 32" style="enable-background:new 0 0 32 32;" xml:space="preserve">
<style type="text/css">
	.st0{fill:#FFFFFF;}
</style>
<g>
	<path class="st0" d="M23.3,15.1c0.5-1.2,0.8-2.8,0-3.7c-1.7-2-5.7,0.1-7.6,0.2c0.9-2.6-0.1-5.3-3.3-4.5c-3,0.7-5.1,2.4-7.2,4.4
		c-2.2,2.2-4.4,4.7-4.7,8c-0.4,3.8,2,5.7,4.3,7c6.9,3.9,18,1.7,21.7-3.4c0.5-0.7,1-1.8,1.1-2.7C28,16.9,25.4,16.3,23.3,15.1z
		 M20.9,23.5C19,25.6,15,27,11,26.8c-3.5-0.2-8.2-2.3-7.3-6.6c0.4-1.9,2-3.2,3.3-4c1.6-1,3.2-1.5,5.6-1.7c4.3-0.4,9.7,1.2,9.7,5.6
		C22.3,21.5,21.6,22.7,20.9,23.5z"/>
	<path class="st0" d="M17.1,19.6c-0.6-1.7-2.4-3-5-2.7c-3,0.3-5.8,2.9-4.6,6.1C9.3,27.8,18.9,25.2,17.1,19.6z M11.1,23.6
		c-2.3,0.5-2.7-2.4-0.6-2.9C12.9,20.1,12.7,23.2,11.1,23.6z M12.7,20.6c0-0.9,1.1-1,1.2-0.3C14,20.8,13,21.3,12.7,20.6z"/>
	<path class="st0" d="M26.3,13.5c0.8-0.1,1.1-1.2,1-2.5c-0.3-1.9-1.9-3.4-4.1-3.2c-0.5,0-1.4-0.1-1.4,1c0,1.4,1.5,0.6,2.5,1
		c0.5,0.2,1.1,1,1.1,1.7C25.5,12.6,25,13.6,26.3,13.5z"/>
	<path class="st0" d="M31.5,11c-0.4-4.6-4.2-8.1-9.2-7.4c-0.7,0.1-1.3,0.1-1.5,0.9c-0.3,1.8,1.7,1.2,2.5,1.2c3,0,6.1,2.5,6,6.1
		c0,1.2-1,3.3,0.9,3.1C31.4,14.8,31.7,12.7,31.5,11z"/>
</g>
</svg>
