<?xml version="1.0" encoding="utf-8"?>
<!-- Generator: Adobe Illustrator 26.4.1, SVG Export Plug-In . SVG Version: 6.00 Build 0)  -->
<svg version="1.1" id="图层_1" xmlns="http://www.w3.org/2000/svg" xmlns:xlink="http://www.w3.org/1999/xlink" x="0px" y="0px"
	 viewBox="0 0 32 32" style="enable-background:new 0 0 32 32;" xml:space="preserve">
<style type="text/css">
	.st0{fill:#FFFFFF;}
</style>
<g>
	<path class="st0" d="M12,19.2c0.1-1.4,0.6-2.7,1.5-3.8c1.2-1.6,2.8-2.7,4.7-3.4c1.4-0.5,2.9-0.7,4.4-0.6c0.2,0,0.2,0,0.1-0.1
		c-0.2-0.9-0.5-1.7-1-2.5C20.6,6.8,19,5.5,17,4.6c-1.6-0.7-3.4-1.1-5.2-1.1c-0.6,0-1.2,0-1.7,0.1C8.4,3.8,6.9,4.3,5.5,5.1
		c-1.7,1-3.1,2.3-4,4c-0.8,1.5-1.1,3.2-0.8,4.9c0.2,1.6,0.9,3,2,4.2c0.5,0.6,1.1,1.2,1.7,1.6c0.3,0.3,0.4,0.5,0.3,0.9
		c-0.1,0.5-0.2,0.9-0.4,1.3c-0.1,0.2-0.1,0.4-0.2,0.6c0,0.2,0,0.3,0.1,0.4c0.1,0.1,0.3,0.1,0.4,0l0.1-0.1l2.3-1.4
		c0.3-0.2,0.6-0.2,0.9-0.1c1.3,0.4,2.7,0.5,4.1,0.5v0c0.1,0,0.1,0,0.1-0.1C12,21.1,11.9,20.2,12,19.2z M15.4,8.4
		c0.8,0,1.5,0.7,1.5,1.5c0,0.8-0.7,1.5-1.5,1.5c0,0,0,0,0,0h0c0,0,0,0,0,0c-0.8,0-1.4-0.6-1.4-1.4C14,9.1,14.6,8.4,15.4,8.4z
		 M8,11.3c-0.8,0-1.4-0.6-1.4-1.4c0-0.8,0.6-1.5,1.4-1.5c0.8,0,1.4,0.6,1.4,1.4C9.5,10.6,8.8,11.3,8,11.3z"/>
	<path class="st0" d="M30.7,16.9c-0.8-1.7-2.2-2.9-3.8-3.7c-1.4-0.7-3-1.1-4.5-1.1c-1.1,0-2.2,0.1-3.3,0.4c-1.8,0.5-3.4,1.5-4.6,2.9
		c-1,1.2-1.5,2.5-1.6,4.1c-0.1,1.2,0.2,2.4,0.8,3.5c0.9,1.7,2.3,2.8,4.1,3.6c2.4,1.1,4.8,1.2,7.3,0.5c0.3-0.1,0.6-0.1,0.9,0.1
		c0.6,0.4,1.3,0.8,1.9,1.1c0.1,0.1,0.3,0.1,0.4,0c0.1-0.1,0.1-0.2,0.1-0.4c-0.1-0.5-0.3-1.1-0.4-1.6c-0.1-0.4,0-0.6,0.3-0.8
		c0.6-0.4,1.1-1,1.6-1.5c0.9-1.1,1.4-2.4,1.5-3.8v0C31.5,19.1,31.2,18,30.7,16.9z M19,18.6c-0.7,0-1.2-0.5-1.2-1.2
		c0-0.7,0.5-1.2,1.2-1.2c0.7,0,1.2,0.6,1.2,1.2c0,0,0,0,0,0C20.3,18,19.7,18.6,19,18.6z M25.2,18.6c-0.7,0-1.2-0.6-1.2-1.2
		c0-0.7,0.6-1.2,1.2-1.2c0.7,0,1.2,0.6,1.2,1.2C26.4,18,25.9,18.6,25.2,18.6z"/>
</g>
</svg>
